<svg width="69" height="86" viewBox="0 0 69 86" fill="none" xmlns="http://www.w3.org/2000/svg">
<path d="M38.2949 33.9083L44.3973 30.0234L46.8782 31.5215L38.2949 41.3947V33.9083Z" fill="#FFB6B6"/>
<path d="M29.9501 18.8715C29.9501 18.8715 25.8969 19.8262 27.8043 25.3158C29.7117 30.8054 35.9108 42.262 37.8182 41.5459C39.7256 40.8299 39.964 33.6696 39.964 33.6696C39.964 33.6696 39.7256 33.9082 38.7719 32.9535C37.8182 31.9988 37.8182 32.4348 37.8182 31.3814C37.8182 30.3281 37.0381 29.5472 37.0381 29.5472L36.1492 27.7026C36.1492 27.7026 36.1492 19.1102 32.5728 18.6328C28.9964 18.1555 29.9501 18.8715 29.9501 18.8715Z" fill="#E6E6E6"/>
<path d="M48.887 31.2649C50.4698 29.6804 50.9605 27.6024 49.9828 26.6237C49.0051 25.645 46.9294 26.1362 45.3465 27.7207C43.7636 29.3053 43.273 31.3832 44.2507 32.3619C45.2283 33.3406 47.3041 32.8495 48.887 31.2649Z" fill="#FFB6B6"/>
<path d="M14.1631 50.4959L18.3271 57.3953L42.593 55.9579L36.1316 47.6211L14.1631 50.4959Z" fill="#E6E6E6"/>
<path d="M21.4139 82.7688C21.2725 82.7688 21.1494 82.6644 21.1297 82.5203L13.8787 29.5065C13.8571 29.3491 13.9671 29.2041 14.1242 29.1826C14.2812 29.1599 14.4261 29.2711 14.4477 29.4284L21.6987 82.4423C21.7203 82.5997 21.6103 82.7447 21.4532 82.7661C21.44 82.768 21.4269 82.7688 21.4139 82.7688Z" fill="#E6E6E6"/>
<path d="M14.1631 82.8335C14.0046 82.8335 13.876 82.7047 13.876 82.546V29.475C13.876 29.3162 14.0046 29.1875 14.1631 29.1875C14.3217 29.1875 14.4503 29.3162 14.4503 29.475V82.546C14.4503 82.7047 14.3217 82.8335 14.1631 82.8335Z" fill="#E6E6E6"/>
<path d="M50.5618 82.6233C50.4398 82.6233 50.3265 82.5447 50.288 82.422L33.1295 27.827C33.0819 27.6755 33.166 27.5141 33.3173 27.4664C33.4685 27.4189 33.6298 27.503 33.6774 27.6543L50.8358 82.2493C50.8834 82.4008 50.7993 82.5622 50.6481 82.6099C50.6194 82.6189 50.5903 82.6233 50.5618 82.6233Z" fill="#E6E6E6"/>
<path d="M45.3208 82.6886C45.1926 82.6886 45.0758 82.6021 45.0427 82.472L33.1251 34.2881C33.0861 34.1342 33.179 33.9777 33.3327 33.9385C33.4868 33.8997 33.6427 33.9924 33.6818 34.1463L45.5994 82.3302C45.6384 82.4841 45.5455 82.6406 45.3919 82.6797C45.3681 82.6858 45.3442 82.6886 45.3208 82.6886Z" fill="#E6E6E6"/>
<path d="M14.1631 30.3218L34.0496 30.0156L37.7111 50.9295H14.4503L14.1631 30.3218Z" fill="#E6E6E6"/>
<path d="M44.7247 61.0742L39.7129 69.9072L45.532 71.1897L47.958 64.9073L44.7247 61.0742Z" fill="#FFB6B6"/>
<path d="M41.5125 68.237C41.5125 68.237 41.3177 66.7966 40.1728 67.2537C39.0279 67.7108 35.7236 69.4096 35.7236 69.4096C35.7236 69.4096 44.342 83.4282 45.9776 82.7752C47.6132 82.1222 45.6552 78.1594 45.6552 78.1594L46.0874 71.1549L41.5125 68.237Z" fill="#2F2E41"/>
<path d="M22.5599 43.9333C22.5599 43.9333 20.7717 52.1677 26.2555 55.0318C31.7392 57.8959 50.4556 50.8549 50.4556 50.8549L41.8723 63.7295L47.8329 66.1303C47.8329 66.1303 61.4231 48.2295 60.4694 45.3653C59.5157 42.5012 53.0783 42.2625 53.0783 42.2625L38.5343 42.9786L34.7195 41.7852L22.5599 43.9333Z" fill="#2F2E41"/>
<path d="M37.3096 64.9961L29.4307 71.3979L34.3846 74.7121L38.928 69.7442L37.3096 64.9961Z" fill="#FFB6B6"/>
<path d="M31.7137 70.5016C31.7137 70.5016 32.0559 69.089 30.8234 69.0977C29.5908 69.1064 25.8955 69.4851 25.8955 69.4851C25.8955 69.4851 28.8273 85.6821 30.5881 85.6696C32.349 85.6572 31.9657 81.2529 31.9657 81.2529L34.9143 74.886L31.7137 70.5016Z" fill="#2F2E41"/>
<path d="M22.8945 40.957C22.8945 40.957 18.2357 47.9755 22.3025 52.6409C26.3692 57.3063 46.3618 57.5657 46.3618 57.5657L33.6871 66.431L38.3664 70.8386C38.3664 70.8386 57.5318 59.1154 57.6846 56.1002C57.8374 53.085 51.928 50.5177 51.928 50.5177L38.1209 45.8868L35.0014 43.3856L22.8945 40.957Z" fill="#2F2E41"/>
<path d="M34.8624 24.6989C34.8624 24.6989 30.3324 23.0282 28.1866 23.0282C27.9815 23.0282 27.7788 23.0521 27.5762 23.095C26.2029 23.3862 24.9392 24.5677 24.3336 25.2121C24.0976 25.4651 23.9617 25.6346 23.9617 25.6346C23.9617 25.6346 23.976 25.4699 24.0046 25.1811C24.1453 23.6631 24.665 18.6819 25.5973 15.4931C25.9311 14.3546 26.3149 13.4453 26.756 13.0037C27.7836 11.9726 28.2581 10.7363 28.4774 9.81498C28.6634 9.02494 28.6634 8.46883 28.6634 8.46883L26.9253 7.71938L26.6034 5.61423C26.5462 5.86245 26.2815 6.34698 25.3922 7.27544C25.3159 7.35419 25.2325 7.42103 25.1443 7.47831C23.8615 8.28504 21.246 6.88162 19.8369 5.99851C20.4234 3.95781 21.4868 2.09134 23.4181 1.78584C27.9481 1.0698 27.9481 -1.55565 30.8092 1.30849C31.0453 1.54477 31.2837 1.77152 31.5221 1.9911C32.4377 3.743 32.7715 6.09159 32.8907 7.72415C32.9765 8.86742 32.9551 9.66222 32.9551 9.66222C32.9551 9.66222 34.1472 16.8226 36.0546 18.2546C37.962 19.6867 34.8624 24.6989 34.8624 24.6989Z" fill="#2F2E41"/>
<path d="M26.0409 13.2422L22.8193 17.9726L30.0941 19.9252V13.2422H26.0409Z" fill="#FFB6B6"/>
<path opacity="0.1" d="M26.0409 13.2422L22.8193 17.9726L30.0941 19.9252V13.2422H26.0409Z" fill="black"/>
<path d="M30.5466 17.7977L23.6323 14.9336C23.6323 14.9336 14.3337 18.9911 15.049 26.8675C15.7643 34.7439 22.4402 48.3485 22.4402 48.3485L35.792 42.6203L34.3614 27.3449L30.5466 17.7977Z" fill="#E6E6E6"/>
<path d="M27.5825 15.3538C30.9515 15.3538 33.6826 12.6198 33.6826 9.24721C33.6826 5.87464 30.9515 3.14062 27.5825 3.14062C24.2135 3.14062 21.4824 5.87464 21.4824 9.24721C21.4824 12.6198 24.2135 15.3538 27.5825 15.3538Z" fill="#FFB6B6"/>
<path d="M35.8169 7.03676C34.6248 8.23015 33.6711 9.42355 33.6711 9.42355L33.1942 7.51412C33.1942 7.51412 33.0845 7.59526 32.8914 7.72415C32.1356 8.23969 30.1066 9.53571 28.4782 9.81497C27.7534 9.93908 27.1096 9.86032 26.69 9.42355C25.8007 8.49508 25.536 8.01056 25.4788 7.76234L25.1569 9.86748L23.4188 10.6169C23.4188 10.6169 23.4188 13.2376 25.3262 15.1518C25.4192 15.2449 25.5098 15.3595 25.598 15.4931C26.5088 16.8679 27.1621 20.2333 27.5769 23.095C27.9441 25.6393 28.1205 27.7827 28.1205 27.7827C28.1205 27.7827 26.3157 25.52 24.3343 25.2121C24.2247 25.1954 24.115 25.1835 24.0053 25.1811C23.9696 25.1763 23.9314 25.1763 23.8956 25.1763C21.7498 25.1763 17.2197 26.847 17.2197 26.847C17.2197 26.847 14.1202 21.8348 16.0276 20.4027C17.935 18.9707 19.1271 11.8103 19.1271 11.8103C19.1271 11.8103 19.0485 8.74569 19.8376 5.9985C20.4242 3.95781 21.4876 2.09134 23.4188 1.78585C27.9489 1.06981 27.9489 -1.55565 30.81 1.30848C31.046 1.54477 31.2844 1.77153 31.5229 1.99111C34.1884 4.44473 36.9113 5.94122 35.8169 7.03676Z" fill="#2F2E41"/>
<path d="M9.06235 39.0742H6.79688V83.865H9.06235V39.0742Z" fill="#3F3D56"/>
<path d="M63.9999 39.0742H61.7344V83.865H63.9999V39.0742Z" fill="#3F3D56"/>
<path d="M49.5576 20.082H34.5488V35.1068H49.5576V20.082Z" fill="#7502FF"/>
<path d="M25.8975 36.0567L31.9998 32.1719L34.4808 33.67L25.8975 43.5432V36.0567Z" fill="#FFB6B6"/>
<path d="M17.5527 21.02C17.5527 21.02 13.4995 21.9747 15.4069 27.4643C17.3143 32.9539 23.5133 44.4104 25.4207 43.6944C27.3281 42.9784 27.5665 35.818 27.5665 35.818C27.5665 35.818 27.3281 36.0567 26.3744 35.102C25.4207 34.1473 25.4207 34.5833 25.4207 33.5299C25.4207 32.4765 24.6407 31.6956 24.6407 31.6956L23.7517 29.8511C23.7517 29.8511 23.7517 21.2586 20.1754 20.7813C16.599 20.3039 17.5527 21.02 17.5527 21.02Z" fill="#E6E6E6"/>
<path d="M36.4895 33.4134C38.0724 31.8288 38.563 29.7509 37.5853 28.7722C36.6077 27.7935 34.532 28.2846 32.9491 29.8692C31.3662 31.4537 30.8756 33.5317 31.8532 34.5104C32.8309 35.4891 34.9066 34.9979 36.4895 33.4134Z" fill="#FFB6B6"/>
<path d="M68.5307 37.375H0V42.4777H68.5307V37.375Z" fill="#3F3D56"/>
</svg>
