<svg width="20" height="20" viewBox="0 0 20 20" fill="none" xmlns="http://www.w3.org/2000/svg">
<g clip-path="url(#clip0_5171_1952)">
<path d="M16.1901 10.8141C16.2234 10.5474 16.2484 10.2807 16.2484 9.9974C16.2484 9.71406 16.2234 9.4474 16.1901 9.18073L17.9484 7.80573C18.1067 7.68073 18.1484 7.45573 18.0484 7.2724L16.3817 4.38906C16.3067 4.25573 16.1651 4.18073 16.0151 4.18073C15.9651 4.18073 15.9151 4.18906 15.8734 4.20573L13.7984 5.03906C13.3651 4.70573 12.8984 4.43073 12.3901 4.2224L12.0734 2.01406C12.0484 1.81406 11.8734 1.66406 11.6651 1.66406H8.33173C8.1234 1.66406 7.9484 1.81406 7.9234 2.01406L7.60673 4.2224C7.0984 4.43073 6.63173 4.71406 6.1984 5.03906L4.1234 4.20573C4.0734 4.18906 4.0234 4.18073 3.9734 4.18073C3.83173 4.18073 3.69007 4.25573 3.61507 4.38906L1.9484 7.2724C1.84007 7.45573 1.89007 7.68073 2.0484 7.80573L3.80673 9.18073C3.7734 9.4474 3.7484 9.7224 3.7484 9.9974C3.7484 10.2724 3.7734 10.5474 3.80673 10.8141L2.0484 12.1891C1.89007 12.3141 1.8484 12.5391 1.9484 12.7224L3.61507 15.6057C3.69007 15.7391 3.83173 15.8141 3.98173 15.8141C4.03173 15.8141 4.08173 15.8057 4.1234 15.7891L6.1984 14.9557C6.63173 15.2891 7.0984 15.5641 7.60673 15.7724L7.9234 17.9807C7.9484 18.1807 8.1234 18.3307 8.33173 18.3307H11.6651C11.8734 18.3307 12.0484 18.1807 12.0734 17.9807L12.3901 15.7724C12.8984 15.5641 13.3651 15.2807 13.7984 14.9557L15.8734 15.7891C15.9234 15.8057 15.9734 15.8141 16.0234 15.8141C16.1651 15.8141 16.3067 15.7391 16.3817 15.6057L18.0484 12.7224C18.1484 12.5391 18.1067 12.3141 17.9484 12.1891L16.1901 10.8141ZM14.5401 9.38906C14.5734 9.6474 14.5817 9.8224 14.5817 9.9974C14.5817 10.1724 14.5651 10.3557 14.5401 10.6057L14.4234 11.5474L15.1651 12.1307L16.0651 12.8307L15.4817 13.8391L14.4234 13.4141L13.5567 13.0641L12.8067 13.6307C12.4484 13.8974 12.1067 14.0974 11.7651 14.2391L10.8817 14.5974L10.7484 15.5391L10.5817 16.6641H9.41507L9.25673 15.5391L9.1234 14.5974L8.24007 14.2391C7.88173 14.0891 7.5484 13.8974 7.21507 13.6474L6.45673 13.0641L5.5734 13.4224L4.51507 13.8474L3.93173 12.8391L4.83173 12.1391L5.5734 11.5557L5.45673 10.6141C5.43173 10.3557 5.41507 10.1641 5.41507 9.9974C5.41507 9.83073 5.43173 9.63906 5.45673 9.38906L5.5734 8.4474L4.83173 7.86406L3.93173 7.16406L4.51507 6.15573L5.5734 6.58073L6.44007 6.93073L7.19007 6.36406C7.5484 6.0974 7.89007 5.8974 8.23173 5.75573L9.11507 5.3974L9.2484 4.45573L9.41507 3.33073H10.5734L10.7317 4.45573L10.8651 5.3974L11.7484 5.75573C12.1067 5.90573 12.4401 6.0974 12.7734 6.3474L13.5317 6.93073L14.4151 6.5724L15.4734 6.1474L16.0567 7.15573L15.1651 7.86406L14.4234 8.4474L14.5401 9.38906ZM9.9984 6.66406C8.15673 6.66406 6.66507 8.15573 6.66507 9.9974C6.66507 11.8391 8.15673 13.3307 9.9984 13.3307C11.8401 13.3307 13.3317 11.8391 13.3317 9.9974C13.3317 8.15573 11.8401 6.66406 9.9984 6.66406ZM9.9984 11.6641C9.08173 11.6641 8.33173 10.9141 8.33173 9.9974C8.33173 9.08073 9.08173 8.33073 9.9984 8.33073C10.9151 8.33073 11.6651 9.08073 11.6651 9.9974C11.6651 10.9141 10.9151 11.6641 9.9984 11.6641Z" fill="#2A2C2C"/>
</g>
<defs>
<clipPath id="clip0_5171_1952">
<rect width="20" height="20" fill="white"/>
</clipPath>
</defs>
</svg>
