<svg width="37" height="24" viewBox="0 0 37 24" fill="none" xmlns="http://www.w3.org/2000/svg">
<path d="M18.3333 21.2349C21.0948 21.2349 23.3333 16.9517 23.3333 11.6682C23.3333 6.3847 21.0948 2.10156 18.3333 2.10156C15.5719 2.10156 13.3333 6.3847 13.3333 11.6682C13.3333 16.9517 15.5719 21.2349 18.3333 21.2349Z" fill="#7502FF"/>
<path d="M10.8333 11.6667C10.8333 10.05 11.2167 4.73333 15.8833 0.833333C14.5833 0.316667 13.1667 0 11.6667 0C5.23333 0 0 5.23333 0 11.6667C0 18.1 5.23333 23.3333 11.6667 23.3333C13.1667 23.3333 14.5833 23.0167 15.8833 22.5C11.2167 18.6 10.8333 13.2833 10.8333 11.6667Z" fill="#7502FF"/>
<path d="M25 0C23.5 0 22.0833 0.316667 20.7833 0.833333C25.45 4.73333 25.8333 10.05 25.8333 11.6667C25.8333 13.2833 25.45 18.6 20.7833 22.5C22.0833 23.0167 23.5 23.3333 25 23.3333C31.4333 23.3333 36.6667 18.1 36.6667 11.6667C36.6667 5.23333 31.4333 0 25 0Z" fill="#7502FF"/>
</svg>
